# xmcd
#
# Track frame offsets: 
#        150
#        13065
#        28545
#
# Disc length: 564 seconds
#
# Revision: 0
# Processed by: cddbd v1.5.1PL0 Copyright (c) Steve Scherf et al.
# Submitted via: ExactAudioCopy v0.95b2
#
DISCID=19023203
DTITLE=Linda Feller - Wunderbar
DYEAR=2000
DGENRE=Country
TTITLE0=Wunderbar
TTITLE1=Und dann steht sie wieder im Rampenlicht
TTITLE2=Koenntet ihr noch Kinder kriegen
EXTD=
EXTT0=
EXTT1=
EXTT2=
PLAYORDER=
